<?xml version="1.0" encoding="UTF-8"?>
<svg version="1.1" xmlns="http://www.w3.org/2000/svg" width="400" height="400">
<path d="M0 0 C132 0 264 0 400 0 C400 132 400 264 400 400 C268 400 136 400 0 400 C0 268 0 136 0 0 Z " fill="#000000" transform="translate(0,0)"/>
<path d="M0 0 C20.80177096 -0.0935806 41.60350705 -0.16404638 62.40544605 -0.20724869 C72.06488407 -0.22784445 81.72419104 -0.25590779 91.38354492 -0.30175781 C99.8059378 -0.34171718 108.22823573 -0.3674545 116.65072078 -0.37635398 C121.10740874 -0.38155336 125.56382515 -0.39371109 130.0204258 -0.42292023 C134.22211189 -0.45023341 138.42341666 -0.45841316 142.62518311 -0.45243073 C144.16057602 -0.4535239 145.69598277 -0.46138272 147.23129845 -0.4768219 C164.39299274 -0.64081774 177.15446973 4.84501545 189.68359375 16.58984375 C203.77669959 31.25332824 209.68901741 49.92360155 209.33984375 69.8359375 C208.50766706 88.22669711 199.71643915 104.98478988 187 118 C174.82222302 128.73019577 162.56384739 132.92068233 146.5612793 132.68115234 C144.95347152 132.67945576 143.34565911 132.68041796 141.737854 132.68380737 C137.413964 132.6855145 133.09109209 132.65047577 128.76743674 132.60836363 C124.23383106 132.5706128 119.70019675 132.56731221 115.16645813 132.56021118 C106.5995458 132.54163337 98.03309809 132.49249305 89.46638948 132.43211424 C79.7057592 132.36482792 69.94510561 132.33200471 60.18430078 132.30194163 C40.12260881 132.23938692 20.06133379 132.13399073 0 132 C-0.20923899 128.19094675 -0.33423574 124.38339107 -0.4453125 120.5703125 C-0.50501221 119.50208252 -0.56471191 118.43385254 -0.6262207 117.33325195 C-0.7831492 110.13381293 0.39960286 106.20699055 5.19067383 100.78393555 C7.68119118 98.32610958 10.22842709 95.97863306 12.94189453 93.76904297 C15.21304418 91.93700386 15.21304418 91.93700386 17.36911011 88.93476868 C21.09247283 85.23257578 24.60134154 85.282369 29.67599487 85.2233429 C31.39678757 85.24874397 31.39678757 85.24874397 33.15234375 85.2746582 C34.37253204 85.26884735 35.59272034 85.2630365 36.84988403 85.25704956 C39.49614609 85.24864487 42.13974088 85.25102845 44.78567505 85.27211952 C48.97184453 85.30527923 53.15727174 85.29585853 57.34350586 85.2808075 C63.96616111 85.26194872 70.58843256 85.27093459 77.21107006 85.29212874 C89.06783507 85.3298378 100.9245459 85.33395514 112.78133869 85.30727643 C116.9395481 85.29920138 121.09729267 85.30774637 125.25544739 85.32983935 C128.45284538 85.34355876 131.65023456 85.33860965 134.84765625 85.3371582 C135.99485138 85.34801956 137.14204651 85.35888092 138.32400513 85.37007141 C143.95310239 85.34953019 148.17904902 85.26824297 153 82 C154.89722044 80.16169175 154.89722044 80.16169175 156.3125 78.0625 C156.80363281 77.39347656 157.29476562 76.72445312 157.80078125 76.03515625 C160.69834163 71.11779808 160.46687407 65.54963522 160 60 C158.19505572 54.47899398 154.55377265 51.36869447 150 48 C147.49117577 46.74558788 145.88505858 46.9187116 143.07939148 46.98309326 C141.51789368 47.01393257 141.51789368 47.01393257 139.92485046 47.0453949 C138.20380852 47.08624962 138.20380852 47.08624962 136.44799805 47.12792969 C133.94831981 47.17735765 131.44861835 47.22562113 128.94889832 47.27288818 C127.95874554 47.29226307 127.95874554 47.29226307 126.94858968 47.31202936 C118.46133975 47.47408662 109.97303928 47.53603199 101.48456132 47.59832716 C93.23252343 47.65899324 84.98446632 47.75179543 76.73461914 47.95654297 C70.17638869 48.11913428 63.62201462 48.20479098 57.06170303 48.20422101 C53.59689943 48.2065819 50.14161199 48.24410679 46.67908287 48.37496185 C33.2104152 48.81766063 22.2647472 48.39223719 11.46800709 39.59524918 C3.56870362 32.1308839 -0.98628217 25.65247053 -1.4111681 14.58669662 C-1.26831231 9.66519811 -0.82455652 4.85370813 0 0 Z " fill="#D0D7DF" transform="translate(96,80)"/>
<path d="M0 0 C22.90168212 -2.77638851 22.90168212 -2.77638851 32.40812016 4.44087791 C36.34379398 7.87464745 40.00327461 11.51671438 43.62890625 15.2734375 C45.24874365 16.87383013 46.8721913 18.47057589 48.49900818 20.06387329 C51.87565158 23.39941896 55.20333107 26.77555596 58.50219727 30.18798828 C62.70058999 34.52325747 67.00332246 38.73353653 71.35009861 42.91937828 C74.71922039 46.18984036 78.02327408 49.52059468 81.31199455 52.87172318 C82.8751047 54.44948462 84.45732359 56.00858387 86.05963326 57.54652023 C94.67425002 65.88444215 99.71077826 72.23081126 100.03215694 84.57230568 C99.92381147 89.74464482 99.59743371 94.86130787 99 100 C77.80380871 103.56115122 54.30803316 106.83058115 35.56942749 94.11419678 C19.82160247 82.77949239 2.21048914 66.10786199 -1.94580078 46.52148438 C-4.22410084 30.9392008 -2.53732456 15.43479913 0 0 Z " fill="#D0D7DF" transform="translate(97,221)"/>
<path d="M0 0 C23.83176353 -2.18322256 23.83176353 -2.18322256 31.05499268 3.6328125 C33.7842645 6.26984212 36.22003163 9.06828331 38.625 12 C39.64998209 13.14237376 40.6812506 14.27913853 41.71875 15.41015625 C45.09779786 19.13381584 48.32429078 22.98385857 51.53791809 26.85035706 C55.46808984 31.47850983 59.69400827 35.59881534 64.19664001 39.66868591 C67.5070545 42.66557304 70.75764554 45.72331797 74.00327969 48.79010677 C76.45274812 51.09839142 78.91964068 53.37849219 81.44018555 55.60913086 C99.08011724 71.36522856 99.08011724 71.36522856 100.28173828 81.95361328 C100.48549468 88.04320478 100.00756568 93.99488972 99 100 C77.61776126 103.70571692 53.71090897 106.61409253 34.66790771 94.29794312 C19.05533468 83.21787646 2.06324264 66.77287502 -1.89404297 47.47070312 C-4.12520779 31.66724567 -2.65705667 15.66451726 0 0 Z " fill="#D0D7DF" transform="translate(205,221)"/>
</svg>
