<?xml version="1.0" encoding="UTF-8"?>
<svg version="1.1" xmlns="http://www.w3.org/2000/svg" width="148" height="148">
<path d="M0 0 C48.84 0 97.68 0 148 0 C148 48.84 148 97.68 148 148 C99.16 148 50.32 148 0 148 C0 99.16 0 50.32 0 0 Z " fill="#F3BA2C" transform="translate(0,0)"/>
<path d="M0 0 C3.68069887 1.53643852 5.98775204 3.78150945 8.75 6.625 C9.54921875 7.44226563 10.3484375 8.25953125 11.171875 9.1015625 C11.77515625 9.72804688 12.3784375 10.35453125 13 11 C16.68069887 9.46356148 18.98775204 7.21849055 21.75 4.375 C22.54921875 3.55773437 23.3484375 2.74046875 24.171875 1.8984375 C24.77515625 1.27195312 25.3784375 0.64546875 26 0 C29.32759923 1.55194754 31.48580485 3.30621949 34 6 C32.54254576 9.36335594 30.68882146 11.54534005 28.0859375 14.109375 C27.32539062 14.86347656 26.56484375 15.61757812 25.78125 16.39453125 C24.9871875 17.17183594 24.193125 17.94914062 23.375 18.75 C22.17230469 19.93916016 22.17230469 19.93916016 20.9453125 21.15234375 C18.96797154 23.10614493 16.98611091 25.05512103 15 27 C11.63664406 25.54254576 9.45465995 23.68882146 6.890625 21.0859375 C6.13652344 20.32539062 5.38242188 19.56484375 4.60546875 18.78125 C3.82816406 17.9871875 3.05085938 17.193125 2.25 16.375 C1.06083984 15.17230469 1.06083984 15.17230469 -0.15234375 13.9453125 C-2.10614493 11.96797154 -4.05512103 9.98611091 -6 8 C-4.44805246 4.67240077 -2.69378051 2.51419515 0 0 Z " fill="#FEFDFB" transform="translate(60,80)"/>
<path d="M0 0 C3.36335594 1.45745424 5.54534005 3.31117854 8.109375 5.9140625 C8.86347656 6.67460938 9.61757812 7.43515625 10.39453125 8.21875 C11.17183594 9.0128125 11.94914062 9.806875 12.75 10.625 C13.54277344 11.42679688 14.33554688 12.22859375 15.15234375 13.0546875 C17.10614493 15.03202846 19.05512103 17.01388909 21 19 C19.44805246 22.32759923 17.69378051 24.48580485 15 27 C11.31930113 25.46356148 9.01224796 23.21849055 6.25 20.375 C5.45078125 19.55773437 4.6515625 18.74046875 3.828125 17.8984375 C3.22484375 17.27195312 2.6215625 16.64546875 2 16 C-1.68069887 17.53643852 -3.98775204 19.78150945 -6.75 22.625 C-7.54921875 23.44226563 -8.3484375 24.25953125 -9.171875 25.1015625 C-9.77515625 25.72804688 -10.3784375 26.35453125 -11 27 C-14.32759923 25.44805246 -16.48580485 23.69378051 -19 21 C-17.54254576 17.63664406 -15.68882146 15.45465995 -13.0859375 12.890625 C-12.32539062 12.13652344 -11.56484375 11.38242187 -10.78125 10.60546875 C-9.9871875 9.82816406 -9.193125 9.05085938 -8.375 8.25 C-7.57320312 7.45722656 -6.77140625 6.66445313 -5.9453125 5.84765625 C-3.96797154 3.89385507 -1.98611091 1.94487897 0 0 Z " fill="#FEFDFB" transform="translate(73,41)"/>
<path d="M0 0 C3.36591866 1.44253657 5.51047079 3.33264727 8 6 C6.55746343 9.36591866 4.66735273 11.51047079 2 14 C-1.36591866 12.55746343 -3.51047079 10.66735273 -6 8 C-4.55746343 4.63408134 -2.66735273 2.48952921 0 0 Z " fill="#FEFDFA" transform="translate(99,67)"/>
<path d="M0 0 C3.36591866 1.44253657 5.51047079 3.33264727 8 6 C6.55746343 9.36591866 4.66735273 11.51047079 2 14 C-1.36591866 12.55746343 -3.51047079 10.66735273 -6 8 C-4.55746343 4.63408134 -2.66735273 2.48952921 0 0 Z " fill="#FEFDFA" transform="translate(47,67)"/>
<path d="M0 0 C3.36591866 1.44253657 5.51047079 3.33264727 8 6 C6.55746343 9.36591866 4.66735273 11.51047079 2 14 C-1.36591866 12.55746343 -3.51047079 10.66735273 -6 8 C-4.55746343 4.63408134 -2.66735273 2.48952921 0 0 Z " fill="#FEFEFE" transform="translate(73,67)"/>
</svg>
