<?xml version="1.0" encoding="UTF-8"?>
<svg version="1.1" xmlns="http://www.w3.org/2000/svg" width="225" height="225">
<path d="M0 0 C74.25 0 148.5 0 225 0 C225 74.25 225 148.5 225 225 C150.75 225 76.5 225 0 225 C0 150.75 0 76.5 0 0 Z " fill="#FEFEFE" transform="translate(0,0)"/>
<path d="M0 0 C3.01127802 2.64406323 4.86134014 5.88417798 6.8515625 9.30859375 C7.22305923 9.93892517 7.59455597 10.56925659 7.97731018 11.21868896 C8.77872834 12.57926814 9.57816426 13.94101647 10.37582397 15.30380249 C12.50005084 18.93216029 14.63948745 22.55153684 16.77734375 26.171875 C17.21268936 26.90991867 17.64803497 27.64796234 18.09657288 28.40837097 C22.40377804 35.70248925 26.78391015 42.95127164 31.1875 50.1875 C31.85668457 51.28827881 32.52586914 52.38905762 33.21533203 53.52319336 C33.85970215 54.58159424 34.50407227 55.63999512 35.16796875 56.73046875 C35.78978027 57.75188965 36.4115918 58.77331055 37.05224609 59.82568359 C38.44558865 62.09645821 39.8483652 64.35906685 41.26416016 66.61572266 C41.63583817 67.21097244 42.00751617 67.80622223 42.39045715 68.41950989 C43.43187451 70.08554317 44.47812962 71.74854956 45.5246582 73.41137695 C47 76 47 76 47 78 C45.13719416 79.26835805 43.20627388 80.43687201 41.25390625 81.5625 C40.65584167 81.91065765 40.0577771 82.25881531 39.44158936 82.61752319 C37.48650468 83.75322104 35.52530722 84.87770733 33.5625 86 C30.88953832 87.53196876 28.21767775 89.06583304 25.546875 90.6015625 C24.88879349 90.9789859 24.23071198 91.3564093 23.5526886 91.74526978 C19.83238841 93.89279216 16.20825056 96.12674657 12.640625 98.5234375 C11.51611938 99.26013672 11.51611938 99.26013672 10.36889648 100.01171875 C9.04205727 100.89134242 7.7345638 101.8012232 6.45336914 102.74609375 C4.67578125 103.8984375 4.67578125 103.8984375 1 105 C-2.70971127 103.98127315 -5.75103717 102.02082203 -9 100 C-10.08128174 99.35981934 -11.16256348 98.71963867 -12.27661133 98.06005859 C-15.89585039 95.91189098 -19.48009509 93.70887236 -23.0625 91.5 C-25.48938737 90.00796365 -27.91780222 88.51844997 -30.34765625 87.03125 C-30.92440094 86.67804688 -31.50114563 86.32484375 -32.09536743 85.9609375 C-36.66121841 83.17759251 -41.29042858 80.53167649 -46 78 C-44.61621551 74.29021747 -42.92642183 70.99030674 -40.90234375 67.58984375 C-40.27416748 66.53144287 -39.64599121 65.47304199 -38.9987793 64.38256836 C-38.31185838 63.23410923 -37.62476046 62.08575597 -36.9375 60.9375 C-36.22355147 59.7391106 -35.50976867 58.54062245 -34.79614258 57.34204102 C-26.94734675 44.17776228 -18.98336963 31.08295887 -11 18 C-10.40123047 17.01854004 -9.80246094 16.03708008 -9.18554688 15.02587891 C-6.12752692 10.01490418 -3.06592917 5.00613921 0 0 Z " fill="#323232" transform="translate(112,38)"/>
<path d="M0 0 C4.61213806 2.26317147 9.04062864 4.82742254 13.5 7.375 C14.42039062 7.89795654 15.34078125 8.42091309 16.2890625 8.9597168 C21.13070397 11.72560343 25.92354135 14.54723949 30.65625 17.49609375 C31.55408203 18.05184082 32.45191406 18.60758789 33.37695312 19.18017578 C35.09707997 20.25061212 36.8096821 21.33325708 38.51367188 22.42919922 C39.29291016 22.91275879 40.07214844 23.39631836 40.875 23.89453125 C41.55304688 24.32612549 42.23109375 24.75771973 42.9296875 25.20239258 C45.74494542 26.28699725 47.13761752 25.92046184 50 25 C52.02944027 23.95448345 54.01789602 22.82769365 55.97265625 21.6484375 C56.53641464 21.31131744 57.10017303 20.97419739 57.68101501 20.62686157 C59.47903725 19.54971282 61.27085078 18.4627093 63.0625 17.375 C64.23851891 16.66728138 65.41494822 15.96024424 66.59179688 15.25390625 C68.34044713 14.20385944 70.08899411 13.15364825 71.83682251 12.10223389 C73.55734872 11.06726564 75.27850231 10.03335146 77 9 C77.57691589 8.6534436 78.15383179 8.30688721 78.74822998 7.9498291 C80.41126663 6.95385173 82.07859904 5.96505794 83.74609375 4.9765625 C84.71087646 4.40244629 85.67565918 3.82833008 86.66967773 3.23681641 C89 2 89 2 91 2 C89.19732837 6.0081749 86.68188138 9.52761309 84.1875 13.125 C83.461073 14.1773584 83.461073 14.1773584 82.7199707 15.25097656 C78.58245688 21.21764458 74.34035738 27.1058685 70.06713867 32.97583008 C67.07844619 37.09009379 64.1329757 41.22909617 61.23828125 45.41015625 C60.6141333 46.31088867 59.98998535 47.21162109 59.34692383 48.13964844 C58.14566625 49.8780976 56.94865069 51.61948824 55.7565918 53.36425781 C52.78843234 57.65765187 49.84524397 61.46323642 46 65 C39.81312172 57.35354128 34.21614167 49.3004478 28.57617188 41.24951172 C26.07731937 37.68315066 23.57123919 34.12191129 21.0625 30.5625 C20.57773193 29.87389893 20.09296387 29.18529785 19.59350586 28.47583008 C16.89698651 24.65469182 14.17544756 20.85341541 11.42578125 17.0703125 C10.83337646 16.2548999 10.24097168 15.4394873 9.63061523 14.59936523 C8.48575196 13.02655141 7.33825048 11.45565356 6.18774414 9.88696289 C5.66946045 9.17531982 5.15117676 8.46367676 4.6171875 7.73046875 C3.93052002 6.79303833 3.93052002 6.79303833 3.22998047 5.83666992 C1.97027583 3.95561435 0.96780421 2.04436634 0 0 Z " fill="#343434" transform="translate(66,122)"/>
<path d="M0 0 C2 2 2 2 2.20254517 4.29055786 C2.18033905 5.24542084 2.15813293 6.20028381 2.13525391 7.18408203 C2.11508209 8.26505157 2.09491028 9.34602112 2.0741272 10.45974731 C2.02583267 12.21603958 2.02583267 12.21603958 1.9765625 14.0078125 C1.93902359 15.8014473 1.93902359 15.8014473 1.90072632 17.63131714 C1.81834006 21.46282522 1.72182171 25.2938321 1.625 29.125 C1.56677955 31.71742722 1.50947589 34.30987521 1.453125 36.90234375 C1.31273349 43.26850856 1.16072787 49.63431794 1 56 C0.10063721 56.41830078 -0.79872559 56.83660156 -1.7253418 57.26757812 C-7.82415935 60.10740953 -13.91897762 62.95452614 -19.99319458 65.84667969 C-22.60644158 67.09029791 -25.2226402 68.32763529 -27.83911133 69.56445312 C-29.17925424 70.19978996 -30.51808062 70.8379098 -31.85571289 71.47851562 C-33.82359337 72.42011683 -35.79596086 73.35164645 -37.76953125 74.28125 C-39.49586792 75.10206055 -39.49586792 75.10206055 -41.25708008 75.93945312 C-42.16224365 76.28943359 -43.06740723 76.63941406 -44 77 C-44.66 76.67 -45.32 76.34 -46 76 C-30.789705 50.59131366 -15.46630583 25.25383846 0 0 Z " fill="#8A8A8A" transform="translate(112,38)"/>
<path d="M0 0 C0 15.18 0 30.36 0 46 C-0.99 46.495 -0.99 46.495 -2 47 C-4.65112305 45.69580078 -4.65112305 45.69580078 -8.01171875 43.6953125 C-8.61287506 43.34040237 -9.21403137 42.98549225 -9.83340454 42.61982727 C-11.78940285 41.46249916 -13.73842015 40.2939352 -15.6875 39.125 C-17.01481327 38.33663898 -18.34253119 37.54895884 -19.6706543 36.76196289 C-22.88545692 34.85441578 -26.09480101 32.93793546 -29.30163574 31.01702881 C-31.61863178 29.6295457 -33.93834799 28.24663272 -36.2578125 26.86328125 C-39.51150786 24.91914913 -42.7587926 22.96487703 -46 21 C-42.16486212 17.72963221 -37.72310118 15.85579885 -33.18359375 13.76953125 C-32.33072281 13.37424728 -31.47785187 12.97896332 -30.59913635 12.57170105 C-28.80066621 11.73984547 -27.00107328 10.91041359 -25.20043945 10.08325195 C-22.44052302 8.81389037 -19.68594802 7.53343191 -16.93164062 6.25195312 C-15.18260287 5.44463795 -13.43326399 4.63797475 -11.68359375 3.83203125 C-10.85854843 3.44771439 -10.03350311 3.06339752 -9.18345642 2.66743469 C-8.41578445 2.31674423 -7.64811249 1.96605377 -6.85717773 1.60473633 C-6.18307358 1.29401688 -5.50896942 0.98329742 -4.81443787 0.66316223 C-3 0 -3 0 0 0 Z " fill="#383838" transform="translate(112,95)"/>
<path d="M0 0 C3.07213132 0.76803283 5.58255473 1.58800394 8.45703125 2.8203125 C9.31546631 3.18761475 10.17390137 3.55491699 11.05834961 3.93334961 C11.96721924 4.32659424 12.87608887 4.71983887 13.8125 5.125 C14.74650635 5.52662354 15.6805127 5.92824707 16.64282227 6.34204102 C23.45390756 9.28742252 30.18479177 12.37220355 36.87109375 15.58984375 C39.87201847 16.94232043 42.86010752 18.01967158 46 19 C46 19.66 46 20.32 46 21 C44.11354765 22.27999088 42.1593127 23.46028483 40.18359375 24.59765625 C39.57969818 24.94832153 38.97580261 25.29898682 38.35360718 25.66027832 C36.38547823 26.80126463 34.41162331 27.93192236 32.4375 29.0625 C30.43297057 30.22028356 28.42978306 31.38036566 26.42662048 32.54051208 C25.10818623 33.30375948 23.78922799 34.06610248 22.46974182 34.82752991 C16.40492021 38.33021201 10.42037532 41.95648598 4.45703125 45.62890625 C2 47 2 47 0 47 C0 31.49 0 15.98 0 0 Z " fill="#141414" transform="translate(113,95)"/>
<path d="M0 0 C4.57060321 2.24289792 8.95760396 4.78458162 13.375 7.3125 C14.28660889 7.83360352 15.19821777 8.35470703 16.13745117 8.89160156 C26.48598739 14.82519715 36.74202494 20.91139545 47 27 C46.67 39.21 46.34 51.42 46 64 C40.38088445 58.38088445 40.38088445 58.38088445 38.0546875 54.8828125 C37.54091553 54.11888184 37.02714355 53.35495117 36.49780273 52.56787109 C35.96227783 51.76172363 35.42675293 50.95557617 34.875 50.125 C30.83308428 44.12657936 26.74759489 38.18415537 22.4375 32.375 C18.44090475 26.97842181 14.50542317 21.54335075 10.625 16.0625 C10.13700928 15.37655762 9.64901855 14.69061523 9.14624023 13.98388672 C5.92670391 9.42283079 2.91053259 4.76391533 0 0 Z " fill="#8D8D8D" transform="translate(66,122)"/>
</svg>
