<?xml version="1.0" encoding="UTF-8"?>
<svg version="1.1" xmlns="http://www.w3.org/2000/svg" width="600" height="600">
<path d="M0 0 C198 0 396 0 600 0 C600 198 600 396 600 600 C402 600 204 600 0 600 C0 402 0 204 0 0 Z " fill="#FF0420" transform="translate(0,0)"/>
<path d="M0 0 C198 0 396 0 600 0 C600 198 600 396 600 600 C402 600 204 600 0 600 C0 402 0 204 0 0 Z M60 63 C59.22269531 63.75410156 58.44539063 64.50820312 57.64453125 65.28515625 C46.89234211 76.37989301 39.35090283 90.26247382 35 105 C34.70738281 105.90234375 34.41476563 106.8046875 34.11328125 107.734375 C30.74656344 118.31079583 29.70627454 128.13879441 29.73257446 139.23469543 C29.72883197 140.6596676 29.72422807 142.08463772 29.71884382 143.50960463 C29.70667151 147.40283819 29.70686746 151.29598544 29.70923257 155.18923366 C29.70964223 159.39741948 29.69858712 163.60557818 29.68911743 167.81375122 C29.67253598 176.05181172 29.6670091 184.28984359 29.66589268 192.52791939 C29.66494044 199.23135699 29.66082136 205.9347852 29.65449142 212.63821983 C29.63688346 231.67488656 29.62765136 250.71153077 29.62915237 269.7482057 C29.62923228 270.77352194 29.6293122 271.79883818 29.62939453 272.85522461 C29.62947629 273.8818044 29.62955805 274.90838419 29.62964229 275.96607246 C29.63045411 292.57996168 29.61134167 309.19376 29.5831178 325.80762295 C29.55431678 342.89722492 29.5405816 359.98678268 29.54230535 377.07640952 C29.54296697 386.65842413 29.53757568 396.24034356 29.51594925 405.8223362 C29.49764177 413.98577317 29.49346764 422.14907187 29.5069681 430.3125206 C29.5134511 434.46911042 29.51378673 438.62543574 29.4962616 442.78199959 C29.35553984 478.485971 34.48118358 508.436901 59 536 C59.74765625 536.84304688 60.4953125 537.68609375 61.265625 538.5546875 C79.07009118 557.47930222 105.03493191 568.35106244 130.72052991 570.27930355 C134.46875543 570.3871205 138.20649499 570.40990547 141.95622253 570.39440918 C143.38637542 570.39931447 144.81652434 570.40551173 146.24666673 570.41286707 C150.12638156 570.42908251 154.00589077 570.42698681 157.88562739 570.4214921 C162.08962903 570.41879887 166.29357863 570.43339632 170.49755859 570.44558716 C178.71475503 570.46654761 186.93188077 570.47118742 195.1491008 570.46939927 C201.83523696 570.46808686 208.52135124 570.47192014 215.20748329 570.47932434 C217.14024697 570.48142375 219.07301064 570.48352135 221.00577432 570.48561716 C221.96804877 570.48666069 222.93032322 570.48770422 223.9217575 570.48877937 C242.08399236 570.507644 260.24618675 570.5066432 278.40842734 570.49981004 C294.98316051 570.4942378 311.55773897 570.5150532 328.132436 570.54817051 C345.19511445 570.58199536 362.25771897 570.59706489 379.32043153 570.59245348 C388.88225421 570.59021761 398.44393393 570.59532194 408.00572777 570.62034607 C416.14708907 570.64147325 424.28822903 570.64483898 432.42959978 570.62604648 C436.57413114 570.61695829 440.71825108 570.61552973 444.8627491 570.63640213 C479.99638344 570.80162542 510.39895662 564.24956993 537 540 C537.66515625 539.41734375 538.3303125 538.8346875 539.015625 538.234375 C558.26885006 520.4206434 568.9081098 492.22522308 570.17040968 466.53134251 C570.43381303 457.30480847 570.41458984 448.07673313 570.39217401 438.84730744 C570.38531166 434.65779853 570.3958997 430.46832536 570.40411377 426.27882385 C570.41737619 418.09813101 570.41460746 409.91752126 570.40587585 401.73682532 C570.39907183 395.08408262 570.39819426 388.43136304 570.4014473 381.77861786 C570.401907 380.82802338 570.40236669 379.87742891 570.40284032 378.89802854 C570.40379959 376.96633865 570.40477223 375.03464876 570.4057581 373.10295889 C570.41428955 355.03817254 570.40451226 336.97343205 570.388357 318.90865323 C570.37494718 303.43501023 570.37729174 287.96143476 570.39111328 272.48779297 C570.40719391 254.47683756 570.41347488 236.46592217 570.40427649 218.45496058 C570.40332093 216.53201342 570.40237782 214.60906625 570.4014473 212.68611908 C570.40075306 211.26726519 570.40075306 211.26726519 570.40004479 209.81974758 C570.39746299 203.17908996 570.40180817 196.53845792 570.40888596 189.89780426 C570.41732843 181.7995678 570.41496297 173.70141851 570.39904372 165.60319194 C570.39119915 161.47771003 570.38800382 157.35237307 570.39799118 153.22689247 C570.4070179 149.44079962 570.40187614 145.65498427 570.38605852 141.86891612 C570.38119037 139.87173175 570.39083503 137.87452766 570.40123022 135.8773644 C570.32296313 123.67276003 568.21718179 111.93828482 563.875 100.5 C563.577146 99.7066626 563.27929199 98.9133252 562.97241211 98.09594727 C552.37723096 71.01213421 531.15698199 50.6771491 504.9375 38.84765625 C489.64008342 32.1550365 474.56399276 29.53741637 457.96784973 29.60559082 C456.52944727 29.60068567 455.09104875 29.59448847 453.65265673 29.58713293 C449.75013912 29.57091577 445.84782591 29.57301355 441.94528663 29.5785079 C437.71674502 29.58120091 433.48825517 29.56660409 429.25973511 29.55441284 C420.99441183 29.53345149 412.72915883 29.52881264 404.46381209 29.53060073 C397.73858368 29.5319131 391.01337702 29.52808009 384.28815269 29.52067566 C382.34415506 29.51857625 380.40015741 29.51647865 378.45615977 29.51438284 C377.48829497 29.51333931 376.52043016 29.51229578 375.52323612 29.51122063 C357.25513108 29.49235563 338.98706628 29.49335691 320.71895554 29.50018996 C304.04722484 29.50576224 287.37564796 29.48494672 270.70395318 29.45182949 C253.54183372 29.4180055 236.37978776 29.402935 219.21763438 29.40754652 C209.59992068 29.40978248 199.9823491 29.40467678 190.36466408 29.37965393 C182.17572604 29.35852788 173.98700806 29.35515992 165.79806063 29.37395352 C161.62922695 29.38304239 157.46080228 29.38446811 153.29200172 29.36359787 C116.48679701 29.19162836 86.63419882 36.44289004 60 63 Z " fill="#FFFEFE" transform="translate(0,0)"/>
<path d="M0 0 C1.24136719 -0.01611328 2.48273438 -0.03222656 3.76171875 -0.04882812 C11.50089782 -0.05290567 18.17460141 0.81869871 25.5 3.3125 C26.67691406 3.70050781 27.85382813 4.08851563 29.06640625 4.48828125 C45.21476913 10.61497434 55.74863208 18.60026773 63.5 34.3125 C69.0229421 49.36998066 66.61764239 65.09665127 63.30175781 80.33764648 C62.75055844 82.87243191 62.22111658 85.41100944 61.6953125 87.95117188 C56.44201175 113.00791779 50.05528182 136.69130243 31.5 155.3125 C30.88769531 155.94800781 30.27539062 156.58351563 29.64453125 157.23828125 C12.79738482 173.4388421 -12.43778999 175.9349784 -34.59765625 175.5625 C-51.48740526 175.02194154 -67.54205686 170.36517558 -80.25 158.8125 C-80.9925 157.9875 -81.735 157.1625 -82.5 156.3125 C-83.345625 155.384375 -84.19125 154.45625 -85.0625 153.5 C-94.62762551 141.65603581 -96.04467483 125.97719599 -94.5 111.3125 C-93.16078798 102.73803201 -91.24352294 94.28271066 -89.29931641 85.82861328 C-88.56279369 82.5887232 -87.87105954 79.34366089 -87.19921875 76.08984375 C-83.14819029 56.76074431 -76.69016835 39.39067283 -63.5 24.3125 C-62.94570312 23.67441406 -62.39140625 23.03632813 -61.8203125 22.37890625 C-45.99297956 5.37777589 -22.29208621 -0.05787146 0 0 Z " fill="#FFFCFC" transform="translate(234.5,210.6875)"/>
<path d="M0 0 C0.72433228 -0.00379669 1.44866455 -0.00759338 2.19494629 -0.01150513 C4.58272036 -0.01889576 6.96926806 0.00246179 9.35693359 0.02490234 C11.02737282 0.02728936 12.69781476 0.02819154 14.36825562 0.02767944 C17.87034923 0.03080569 21.37203299 0.0473476 24.87402344 0.07421875 C29.3356217 0.10804022 33.79676674 0.11585148 38.25847816 0.11432838 C41.71088898 0.11487596 45.16320313 0.12590732 48.61558151 0.14033127 C50.25880579 0.14664407 51.90204091 0.15062506 53.54527664 0.15211868 C72.85619406 0.18886341 93.9633434 2.67276907 108.71630859 16.43115234 C118.14807274 26.57925301 119.1802173 36.61282341 118.97021484 49.94287109 C118.65058657 57.68424139 116.61199159 64.38826625 113.63037109 71.48583984 C113.13408203 72.69884766 112.63779297 73.91185547 112.12646484 75.16162109 C105.0315786 90.80456306 94.18045953 100.38020094 78.42333984 106.79052734 C68.34079548 110.33689083 58.59253411 111.77923342 47.93505859 111.89990234 C46.86160187 111.91926849 45.78814514 111.93863464 44.68215942 111.95858765 C41.28997473 112.01785018 37.89775511 112.06455376 34.50537109 112.11083984 C32.19025301 112.14906877 29.87514841 112.18812328 27.56005859 112.22802734 C21.91695002 112.32350714 16.27375869 112.40870685 10.63037109 112.48583984 C10.49922409 113.12619675 10.36807709 113.76655365 10.23295593 114.42631531 C8.86508058 121.09590417 7.48408136 127.76267903 6.09545898 134.42797852 C5.57907025 136.9152374 5.06602224 139.40319232 4.55639648 141.8918457 C3.82292618 145.47063802 3.07744437 149.04674816 2.32958984 152.62255859 C2.10446213 153.73418869 1.87933441 154.84581879 1.64738464 155.99113464 C1.42738297 157.03183609 1.20738129 158.07253754 0.98071289 159.14477539 C0.79196091 160.05744675 0.60320892 160.9701181 0.40873718 161.91044617 C-0.92791448 166.33304923 -2.5132181 168.91489931 -6.36962891 171.48583984 C-9.24747395 171.69400391 -12.02622731 171.78986225 -14.90478516 171.78662109 C-15.73924667 171.79090622 -16.57370819 171.79519135 -17.43345642 171.79960632 C-19.1961069 171.80534618 -20.95878106 171.80585241 -22.72143555 171.80151367 C-25.42553767 171.79834756 -28.12855222 171.82183749 -30.83251953 171.84716797 C-32.54410669 171.8494403 -34.2556968 171.85014476 -35.96728516 171.84912109 C-37.18448997 171.86293571 -37.18448997 171.86293571 -38.42628479 171.87702942 C-40.7019043 171.8581543 -40.7019043 171.8581543 -44.36962891 171.48583984 C-47.81971677 166.31070804 -45.72424387 160.21412702 -44.58981323 154.37783813 C-43.57076746 149.30653061 -42.4830232 144.25016232 -41.39697266 139.19287109 C-40.99107575 137.28287836 -40.58569629 135.37277559 -40.18080139 133.46257019 C-39.11169544 128.42467511 -38.03643722 123.38811402 -36.95959473 118.35186768 C-35.26599187 110.425838 -33.58184159 102.4977903 -31.89689064 94.56991768 C-31.48016889 92.60970365 -31.06319564 90.64954307 -30.6459713 88.68943596 C-27.35531721 73.22799144 -24.13749098 57.75273703 -20.9886322 42.26179504 C-13.54202784 5.659022 -13.54202784 5.659022 -10.26826477 2.3830719 C-6.59648085 -0.02020554 -4.36872922 -0.00953481 0 0 Z " fill="#FFFCFC" transform="translate(353.36962890625,212.51416015625)"/>
<path d="M0 0 C3.90088056 3.45841957 5.79508405 6.91452632 6.30859375 12.140625 C7.33209946 35.53168963 1.95147964 71.05825559 -12.8125 89.8125 C-19.03690184 96.56089485 -27.2933331 100.52171448 -36.40234375 101.28515625 C-51.07297244 101.64526773 -51.07297244 101.64526773 -56.7421875 96.3828125 C-63.6037417 88.73332863 -63.75600184 81.65770233 -63.24267578 71.73339844 C-62.53381649 63.74910406 -60.60086787 55.93605131 -58.74853516 48.15380859 C-57.98760672 44.94778331 -57.26437573 41.7346549 -56.54296875 38.51953125 C-51.86207381 18.18752458 -51.86207381 18.18752458 -46 10 C-45.62488281 9.41863281 -45.24976563 8.83726562 -44.86328125 8.23828125 C-35.29775595 -5.08632767 -13.62749025 -8.43975249 0 0 Z " fill="#FF0621" transform="translate(249,250)"/>
<path d="M0 0 C4.83801979 -0.07463717 9.67569804 -0.12883014 14.51416016 -0.16479492 C16.15712326 -0.17980136 17.80004686 -0.20021312 19.44287109 -0.22631836 C21.81618042 -0.26306359 24.18895625 -0.27980772 26.5625 -0.29296875 C27.28679199 -0.30845261 28.01108398 -0.32393646 28.75732422 -0.33988953 C34.11909056 -0.34162485 38.10248681 0.78180387 43 3 C47.52744247 7.75961901 48.30273863 10.89716547 48.2109375 17.27734375 C47.61621578 24.95365931 44.4656063 31.57994042 39 37 C31.52293173 42.51194135 25.76395322 44.13451774 16.51171875 44.09765625 C15.80852005 44.0962413 15.10532135 44.09482635 14.3808136 44.09336853 C12.14966456 44.08780109 9.91861836 44.07525475 7.6875 44.0625 C6.16862125 44.05748079 4.64974091 44.05291862 3.13085938 44.04882812 C-0.57946012 44.03784236 -4.28972001 44.02060034 -8 44 C-8.18521549 38.14255999 -7.58485943 33.03564716 -6.25 27.34375 C-6.07243164 26.55601196 -5.89486328 25.76827393 -5.71191406 24.95666504 C-5.14928533 22.46920824 -4.57486561 19.98465404 -4 17.5 C-3.61379701 15.80226202 -3.22837282 14.10434667 -2.84375 12.40625 C-1.90482014 8.26872936 -0.95531431 4.13376698 0 0 Z " fill="#FF0824" transform="translate(379,247)"/>
</svg>
