<?xml version="1.0" encoding="UTF-8"?>
<svg version="1.1" xmlns="http://www.w3.org/2000/svg" width="320" height="320">
<path d="M0 0 C1.20524142 -0.00551503 1.20524142 -0.00551503 2.43483114 -0.01114148 C5.13067352 -0.02216556 7.82647733 -0.02602004 10.52233887 -0.02983093 C12.45417401 -0.03609669 14.38600795 -0.04274359 16.31784058 -0.04974365 C22.66659711 -0.07077822 29.01535385 -0.0811475 35.36413574 -0.09111023 C37.55181389 -0.09515842 39.73949191 -0.09927536 41.9271698 -0.10346031 C52.20864966 -0.12251297 62.49012234 -0.13674219 72.77161646 -0.14507228 C84.62668699 -0.15483648 96.4815704 -0.18113443 108.33657503 -0.22157317 C117.50704494 -0.25177716 126.67746135 -0.26654534 135.84798002 -0.26985329 C141.32126894 -0.27219945 146.79435798 -0.28110309 152.26759338 -0.30631447 C157.42225303 -0.3296742 162.57658233 -0.33379667 167.73128128 -0.32355309 C169.61617255 -0.32305949 171.50108052 -0.32932764 173.38592148 -0.34310913 C192.00957084 -0.47158516 205.88979466 3.7122587 219.76257324 16.73701477 C229.41567746 26.76389239 235.22753695 39.12964583 235.23678589 53.05082703 C235.24116814 53.85291017 235.2455504 54.65499332 235.25006545 55.48138201 C235.26343345 58.17255237 235.26962794 60.86368998 235.27575684 63.55488586 C235.28365967 65.48347623 235.29192873 67.41206512 235.30053711 69.34065247 C235.32674644 75.67979015 235.34206834 82.01893437 235.35632324 88.35810852 C235.36168425 90.54326507 235.36706176 92.72842157 235.3724556 94.91357803 C235.39408687 104.00848252 235.41282047 113.10338524 235.42407799 122.19830894 C235.44029538 135.21339763 235.4734168 148.22818674 235.53047884 161.24316251 C235.56926391 170.40347108 235.58872108 179.56369982 235.59399855 188.72408831 C235.59764158 194.18966801 235.60955051 199.65492811 235.64210129 205.12041855 C235.67233101 210.27020959 235.67844081 215.41949018 235.66671753 220.5693512 C235.66649801 222.45018549 235.67470152 224.3310445 235.69237137 226.21179581 C235.8508457 244.0647614 231.94010749 258.80131481 219.45788574 272.33467102 C205.05747472 285.87328138 189.70149377 288.75466413 170.73522949 288.66474915 C168.80221023 288.6701784 166.86919512 288.67730555 164.93618774 288.68598938 C159.71714638 288.70413005 154.49842348 288.69719359 149.27937698 288.68447304 C143.79972774 288.67429721 138.3201045 288.68375139 132.8404541 288.6900177 C123.64094177 288.6972808 114.44155818 288.68774154 105.24206543 288.6686554 C94.62874121 288.6468893 84.01572443 288.65394162 73.40240765 288.67596102 C64.26572139 288.69415317 55.12912731 288.69665471 45.99242878 288.68620634 C40.54611998 288.67999237 35.09995536 288.67907785 29.65365601 288.69235229 C24.53167307 288.7039658 19.41008387 288.69578505 14.28814316 288.67277527 C12.4161634 288.66751745 10.5441501 288.66895134 8.67218399 288.67782593 C-9.89459308 288.75768543 -23.76972096 284.53917899 -37.59680176 271.55732727 C-47.24990598 261.53044966 -53.06176546 249.16469621 -53.0710144 235.24351501 C-53.07539666 234.44143187 -53.07977891 233.63934872 -53.08429396 232.81296003 C-53.09766197 230.12178968 -53.10385645 227.43065206 -53.10998535 224.73945618 C-53.11788819 222.81086581 -53.12615725 220.88227692 -53.13476562 218.95368958 C-53.16097496 212.6145519 -53.17629685 206.27540767 -53.19055176 199.93623352 C-53.19591277 197.75107698 -53.20129028 195.56592047 -53.20668411 193.38076401 C-53.22831539 184.28585952 -53.24704899 175.1909568 -53.2583065 166.0960331 C-53.2745239 153.08094441 -53.30764531 140.0661553 -53.36470735 127.05117953 C-53.40349242 117.89087096 -53.4229496 108.73064222 -53.42822707 99.57025373 C-53.4318701 94.10467403 -53.44377903 88.63941393 -53.4763298 83.17392349 C-53.50655953 78.02413245 -53.51266932 72.87485186 -53.50094604 67.72499084 C-53.50072652 65.84415655 -53.50893003 63.96329754 -53.52659988 62.08254623 C-53.68529155 44.20509728 -49.78369051 29.36517266 -37.16711426 15.89717102 C-26.82581681 6.15479041 -14.2146207 -0.00349153 0 0 Z " fill="#8345E6" transform="translate(68.9171142578125,15.852828979492188)"/>
<path d="M0 0 C3.55402232 1.48953667 6.85116751 3.32798237 10.1875 5.25 C11.13915039 5.78488037 12.09080078 6.31976074 13.07128906 6.87084961 C16.05922647 8.5610035 19.03122763 10.27643168 22 12 C22.9708252 12.56025879 23.94165039 13.12051758 24.94189453 13.69775391 C27.71887917 15.30677287 30.48678785 16.92995768 33.25 18.5625 C34.10102295 19.06233398 34.9520459 19.56216797 35.82885742 20.07714844 C36.61236572 20.54797852 37.39587402 21.01880859 38.203125 21.50390625 C38.89051758 21.91455322 39.57791016 22.3252002 40.28613281 22.74829102 C42.57541367 24.4202487 43.80230892 26.17457486 44.46508789 28.94189453 C45.13161615 34.6114913 45.80145536 40.49495377 44 46 C40.20021525 50.64247378 34.49504606 52.94398839 29 55 C28.34 55 27.68 55 27 55 C26.98582031 53.75863281 26.97164063 52.51726562 26.95703125 51.23828125 C26.910118 49.59631757 26.86187068 47.95439163 26.8125 46.3125 C26.80669922 45.49587891 26.80089844 44.67925781 26.79492188 43.83789062 C26.64898874 39.83283691 26.42905063 37.60084355 24.05859375 34.28125 C19.96101844 31.22507633 15.71808902 28.66279488 11.25 26.1875 C10.3940625 25.68541016 9.538125 25.18332031 8.65625 24.66601562 C3.09635552 21.57016529 -1.62404403 19.50839569 -8 21 C-11.84191547 22.6066387 -15.32799419 24.64071043 -18.875 26.8125 C-19.81085938 27.35970703 -20.74671875 27.90691406 -21.7109375 28.47070312 C-27.42910319 31.56648775 -27.42910319 31.56648775 -32 36 C-32.4814806 39.21142613 -32.4814806 39.21142613 -32.43359375 42.8984375 C-32.44145653 43.90639877 -32.44145653 43.90639877 -32.44947815 44.9347229 C-32.45589521 46.35523092 -32.45456533 47.7757921 -32.44604492 49.19628906 C-32.43755491 51.36099951 -32.46626024 53.52305169 -32.49804688 55.6875 C-32.49965966 57.07031171 -32.49907987 58.45312807 -32.49609375 59.8359375 C-32.49794678 61.08938965 -32.4997998 62.3428418 -32.50170898 63.63427734 C-31.90481676 67.63853824 -30.85145432 69.17159581 -28 72 C-24.73799118 74.39784478 -21.20812051 76.31837014 -17.6875 78.3125 C-16.76259766 78.86228516 -15.83769531 79.41207031 -14.88476562 79.97851562 C-7.89353047 84.00749363 -7.89353047 84.00749363 0 84 C3.20107159 82.67153078 6.1397603 81.00388737 9.125 79.25 C9.99898437 78.75266357 10.87296875 78.25532715 11.7734375 77.74291992 C13.61214322 76.69436515 15.44706302 75.63914628 17.27832031 74.57763672 C19.84212456 73.09151337 22.41471952 71.62242274 24.9921875 70.16015625 C28.39046203 68.23002951 31.78331024 66.29087289 35.171875 64.34375 C39.61405269 61.79192739 44.06345981 59.25308349 48.515625 56.71875 C50.45416476 55.61439921 52.39262278 54.50990509 54.33105469 53.40536499 C55.6068088 52.67880598 56.88284907 51.95274918 58.15917969 51.22720337 C59.94550998 50.21154383 61.73068692 49.19388495 63.515625 48.17578125 C65.06685059 47.29273315 65.06685059 47.29273315 66.64941406 46.3918457 C68.88087356 45.20184878 68.88087356 45.20184878 70 44 C78.2992813 42.73163812 84.10557207 46.85894997 91.0625 50.9375 C92.26872519 51.62919498 93.47567953 52.31961991 94.68334961 53.00878906 C97.05447061 54.36661614 99.41895195 55.73492945 101.77734375 57.11474609 C104.52185157 58.72028317 107.27443749 60.31028147 110.03125 61.89453125 C119.67222108 67.50833162 119.67222108 67.50833162 122 71 C122.26742554 73.22531128 122.26742554 73.22531128 122.29052734 75.85107422 C122.30328705 76.83574677 122.31604675 77.82041931 122.32919312 78.83493042 C122.33141876 79.89745026 122.33364441 80.95997009 122.3359375 82.0546875 C122.3459227 83.69523605 122.3459227 83.69523605 122.35610962 85.368927 C122.36624039 87.68392249 122.37092651 89.99894721 122.37060547 92.31396484 C122.37497449 95.85433164 122.41127982 99.39344794 122.44921875 102.93359375 C122.45508761 105.1822874 122.45905654 107.43098698 122.4609375 109.6796875 C122.47530853 110.73815887 122.48967957 111.79663025 122.50448608 112.88717651 C122.45924773 120.17277224 122.45924773 120.17277224 120.34277344 123.98510742 C117.70565379 126.25315123 115.11852115 127.90733129 112.0546875 129.55859375 C111.48477081 129.87022964 110.91485413 130.18186554 110.32766724 130.50294495 C108.51545996 131.49138932 106.69576478 132.46492508 104.875 133.4375 C103.0831924 134.40636566 101.29309772 135.37832477 99.503479 136.35122681 C97.76342279 137.2970511 96.02185667 138.24009588 94.28027344 139.18310547 C90.45094763 141.30411192 86.71092784 143.54652782 82.99267578 145.85571289 C78.82803886 148.2472411 74.68989074 148.74918382 70 148 C66.47802266 146.54541382 63.30439769 144.61704933 60.0625 142.625 C59.15314697 142.08423828 58.24379395 141.54347656 57.30688477 140.98632812 C55.44052444 139.87546525 53.57811606 138.75793571 51.71972656 137.63378906 C49.16071993 136.09654737 46.58370851 134.5987962 43.9921875 133.1171875 C42.4739253 132.24484916 40.95569438 131.37245637 39.4375 130.5 C38.74213135 130.10377441 38.0467627 129.70754883 37.33032227 129.29931641 C32.70966605 126.60350178 28.76524623 124.29573869 27 119 C26.92026524 117.66474283 26.89228662 116.32587917 26.90234375 114.98828125 C26.90717773 113.85229492 26.90717773 113.85229492 26.91210938 112.69335938 C26.92467773 111.51483398 26.92467773 111.51483398 26.9375 110.3125 C26.94201172 109.51521484 26.94652344 108.71792969 26.95117188 107.89648438 C26.9629415 105.93095743 26.98087652 103.96546915 27 102 C29.26645058 100.65869239 31.53760097 99.32683766 33.8125 98 C34.45509766 97.6184375 35.09769531 97.236875 35.75976562 96.84375 C40.66015625 94 40.66015625 94 44 94 C44.05607422 95.78857422 44.05607422 95.78857422 44.11328125 97.61328125 C44.17894032 99.179719 44.24538768 100.74612384 44.3125 102.3125 C44.33505859 103.09818359 44.35761719 103.88386719 44.38085938 104.69335938 C44.41630859 105.45068359 44.45175781 106.20800781 44.48828125 106.98828125 C44.51446533 107.68477783 44.54064941 108.38127441 44.56762695 109.09887695 C45.11314553 111.49749535 46.23514786 112.3478542 48 114 C48 114.66 48 115.32 48 116 C48.96679688 116.33451172 48.96679688 116.33451172 49.953125 116.67578125 C52.51193805 117.78788077 54.72999808 118.9829003 57.109375 120.41796875 C57.86476563 120.86720703 58.62015625 121.31644531 59.3984375 121.77929688 C60.95988745 122.7143512 62.51220025 123.66484405 64.0546875 124.63085938 C68.80936054 127.41516367 72.27220394 128.70154046 77.77246094 127.69555664 C81.79981159 126.43800272 85.21055556 124.38435604 88.75 122.125 C89.47832031 121.67769531 90.20664063 121.23039062 90.95703125 120.76953125 C92.35929981 119.90679252 93.75612608 119.03512474 95.14648438 118.15332031 C96.6946967 117.18997007 98.28833069 116.30012306 99.890625 115.4296875 C102.39002501 113.73564972 102.93462859 112.80650953 104 110 C104.29154194 106.85289049 104.29154194 106.85289049 104.23046875 103.37109375 C104.22853516 102.08912109 104.22660156 100.80714844 104.22460938 99.48632812 C104.21840576 98.82189697 104.21220215 98.15746582 104.20581055 97.47290039 C104.1875296 95.44079062 104.18530123 93.40913665 104.18554688 91.37695312 C104.31982641 84.5812883 104.31982641 84.5812883 103 78 C101.17787054 76.91291237 101.17787054 76.91291237 99 76 C97.52281058 75.14279019 96.05182488 74.27483434 94.5859375 73.3984375 C93.74160156 72.90859375 92.89726562 72.41875 92.02734375 71.9140625 C90.27318379 70.8961847 88.52809241 69.86249919 86.79296875 68.8125 C80.8444271 65.41076211 75.85667703 63.47848575 69 65 C65.05637008 66.66012918 61.54169231 68.83128611 57.9375 71.125 C55.82176745 72.41644911 53.70453024 73.70543584 51.5859375 74.9921875 C50.50280273 75.65702148 49.41966797 76.32185547 48.30371094 77.00683594 C42.96703285 80.22651077 37.51622633 83.23435119 32.0625 86.25 C23.98246339 90.74099855 15.95747071 95.30443139 8.03540039 100.06933594 C3.0951827 103.02345045 -1.17731665 105.1466963 -7 104 C-11.18074627 102.16441978 -15.06844735 99.87660068 -19 97.5625 C-20.65926514 96.60657959 -20.65926514 96.60657959 -22.35205078 95.63134766 C-25.57628347 93.76800769 -28.78819546 91.88465098 -32 90 C-33.62156067 89.06755653 -35.24385233 88.13638198 -36.8671875 87.20703125 C-47.50528079 81.03331503 -47.50528079 81.03331503 -50 77 C-50.38768005 74.6544342 -50.38768005 74.6544342 -50.40405273 72.03540039 C-50.41673691 71.05080338 -50.42942108 70.06620636 -50.44248962 69.05177307 C-50.43955399 67.99441452 -50.43661835 66.93705597 -50.43359375 65.84765625 C-50.4388356 64.75537216 -50.44407745 63.66308807 -50.44947815 62.53770447 C-50.45589901 60.22867686 -50.45456055 57.91961654 -50.44604492 55.6105957 C-50.43753973 52.0789966 -50.46628977 48.54901723 -50.49804688 45.01757812 C-50.49965909 42.77343798 -50.49908096 40.52929498 -50.49609375 38.28515625 C-50.50732773 37.22982193 -50.51856171 36.17448761 -50.53013611 35.08717346 C-50.46130033 27.83924227 -50.46130033 27.83924227 -48.36791992 24.03076172 C-45.59608721 21.65359866 -42.83791198 19.94917577 -39.6171875 18.22265625 C-39.00287872 17.88882431 -38.38856995 17.55499237 -37.75564575 17.21104431 C-35.80079885 16.15120042 -33.83842353 15.1063546 -31.875 14.0625 C-29.94064579 13.02243349 -28.00801056 11.97926137 -26.07623291 10.93441772 C-24.81692765 10.25430858 -23.55598777 9.57721704 -22.293396 8.90322876 C-18.58927446 6.91426026 -15.03955871 4.7741436 -11.5078125 2.49609375 C-7.41468997 0.04778064 -4.84261395 -0.96960012 0 0 Z " fill="#FCFBFE" transform="translate(124,85)"/>
</svg>
